<?xml version="1.0" encoding="utf-8"?>
<!-- Generator: Adobe Illustrator 18.1.1, SVG Export Plug-In . SVG Version: 6.00 Build 0)  -->
<!DOCTYPE svg PUBLIC "-//W3C//DTD SVG 1.1//EN" "http://www.w3.org/Graphics/SVG/1.1/DTD/svg11.dtd">
<svg version="1.1" id="Layer_1" xmlns="http://www.w3.org/2000/svg" xmlns:xlink="http://www.w3.org/1999/xlink" x="0px" y="0px"
	 viewBox="0 0 256 252.2" style="enable-background:new 0 0 256 252.2;" xml:space="preserve">
<style type="text/css">
	.st0{fill:#BC9D6D;}
</style>
<g id="Your_Icon_2_">
	<path class="st0" d="M44.9,244.3c2.9,0.3,5.5-1.7,6-4.5c-0.3,3.1,2,5.8,5.1,6.1c3.1,0.3,5.8-2,6.1-5.1c0.3-3.3,1.1-11.7,1.4-14.8
		c0.1,0,0.2,0,0.2,0c20.1,1.6,42.7-13.3,47.2-45c1.9-13.7-1.6-27.4-9.9-38.5c-5.7-7.5-13.1-13.2-21.6-16.7c0.6-1.2,1.1-2.6,1.3-4
		c0.5-3.6-0.4-7.2-2.6-10.2c-2.2-2.9-5.4-4.8-9-5.3c-6.7-1-13.2,3.3-15.1,9.8c-0.2,0.6-0.3,1.2-0.4,1.8c-0.2,1.4-0.1,2.8,0.1,4.2
		c-1.5,0.2-2.9,0.4-4.4,0.7l-3.6-9.8c3.6-2.5,6.4-6.2,7.6-10.6c0.6-2.2,0.9-4.4,0.7-6.7L52.5,71c-0.2-2.3-0.7-4.5-1.6-6.6l13.3-11
		c0.3,0.2,0.6,0.4,0.9,0.5c4.7,2.3,10,2.7,15,1l23.6-8c6.1-2.1,10.8-7,12.6-13.2c0,0,0-0.1,0-0.1l11.7-0.2
		c1.9,4.8,5.7,8.8,10.8,10.9l23,9.5c4.8,2,10,2,14.8,0.1l5.2,6.6c-1.1,1.6-1.9,3.5-2.5,5.4c-0.7,2.6-0.9,5.3-0.6,8.1l3.4,24.7
		c1,7.4,6,13.2,12.5,15.7l-0.3,8.2c-17.3,0.6-34,9.7-43.3,25.8c-3,5.1-5.1,10.1-6.5,15c-6.2,21.7,2.1,40.5,15.8,49.5
		c0.1,0,0.1,0.1,0.2,0.2c-1.6,2.7-6.1,9.8-7.9,12.7c-1.7,2.6-0.9,6.1,1.8,7.8c2.6,1.7,6.1,0.9,7.8-1.7l0,0c-0.2,0.4-0.4,0.7-0.5,1.1
		c-0.7,2.3,0.2,4.9,2.4,6.3c2.6,1.7,6.1,0.9,7.8-1.7c0.7-1.1,6.2-9.9,8.1-13c0.1,0,0.2,0,0.2,0.1c18,9.1,44.6,3.8,60.7-24
		c12.1-20.9,8-46.7-8.5-62.9c1-0.9,2-2,2.7-3.2c0.6-1,1-2,1.3-3.1c1.7-6-0.9-12.5-6.3-15.6c-6.5-3.8-14.9-1.6-18.7,5
		c-0.6,1-1,2-1.3,3.1c-0.1,0.3-0.1,0.6-0.2,0.8c-1.4-0.4-2.9-0.7-4.3-1l0.3-8.3c7-1.6,12.6-6.8,14.6-13.8c0.7-2.6,0.9-5.3,0.6-8.1
		l-3.4-24.7c-1.5-10.7-11.4-18.3-22.2-16.8c-1.8,0.2-3.5,0.8-5.1,1.5l-5-6.4c0.8-1.2,1.5-2.4,2-3.7c4.2-10.2-0.8-21.6-10.7-25.7
		l-23-9.5c-4.9-2-10.2-2-15.1,0c-4.9,2-8.6,5.8-10.6,10.7c-0.3,0.7-0.5,1.4-0.7,2.1c-0.1,0.5-0.2,1-0.3,1.4l-10.9,0.2
		c0-0.1-0.1-0.2-0.1-0.4c-1.7-5-5.2-9-9.9-11.3c-4.7-2.3-10-2.7-15-1l-23.6,8c-6.1,2.1-10.8,7-12.6,13.2c-1.1,3.9-1,7.9,0.3,11.7
		c0.3,0.9,0.7,1.8,1.2,2.7L43.6,55.8c-3.5-2.3-7.7-3.4-12-3.2c-8.3,0.5-15.4,6.3-17.6,14.2c-0.6,2.2-0.9,4.4-0.7,6.7l1.6,24.9
		c0.7,10.6,9.7,18.7,20.3,18.4l3.5,9.6c-13.8,6.1-24.6,18.1-28.9,33.2c-0.6,2.3-1.1,4.6-1.5,7c-4.5,31.7,13.2,52.4,32.9,56.3
		c0.1,0,0.2,0,0.2,0.1c-0.4,3.7-1.4,14-1.5,15.3C39.5,241.3,41.8,244,44.9,244.3z M231.2,194.5c-9.5,16.4-28.3,28.4-45.8,19.6
		c-5.4-2.7-11.7-1.2-14.5,3.4c2.6-4.7,0.8-11-4.2-14.3c-16.4-10.8-15.3-33.1-5.7-49.5c11.3-19.4,36.2-26,55.6-14.8
		C235.8,150.2,242.4,175.2,231.2,194.5z M221.2,125.9c0.7-1.2,2.2-1.6,3.3-0.9c1,0.6,1.4,1.7,1.1,2.8c-0.1,0.2-0.1,0.4-0.2,0.6
		c-0.7,1.2-2.2,1.6-3.3,0.9c0,0,0,0,0,0c0,0,0,0,0,0C220.9,128.6,220.5,127,221.2,125.9z M206.6,69.9l3.4,24.7
		c0.2,1.2,0.1,2.3-0.2,3.4c-0.6,1.9-1.8,3.6-3.4,4.7l0.3-8c0.1-3.1-2.3-5.7-5.4-5.8c-2.6-0.1-4.9,1.6-5.6,4.1
		c-0.1,0.4-0.2,0.9-0.2,1.4l-0.2,6.7c-0.9-1.2-1.6-2.6-1.8-4.2l-3.4-24.7c-0.1-0.6-0.1-1.2-0.1-1.8l3.9,4.9c1.9,2.4,5.5,2.9,7.9,0.9
		c2.4-1.9,2.9-5.5,0.9-7.9l-4.5-5.7C202.3,62.6,206,65.6,206.6,69.9z M143,18.2c2.1-0.9,4.4-0.9,6.4,0l23,9.5
		c3.6,1.5,5.7,5.3,5.1,9.1l-2.7-3.4c-1.9-2.4-5.5-2.9-7.9-0.9c-1,0.8-1.6,1.8-1.9,2.9c-0.5,1.7-0.2,3.6,1,5l2.8,3.6
		c-0.9-0.1-1.9-0.2-2.8-0.6l-23-9.5c-0.5-0.2-1-0.5-1.4-0.7l4.2-0.1c3.1-0.1,5.6-2.6,5.5-5.7c-0.1-3.1-2.6-5.6-5.7-5.5l-6.7,0.1
		C139.9,20.2,141.3,18.9,143,18.2z M71.1,28.3l23.6-8c2.1-0.7,4.4-0.6,6.4,0.4c0.9,0.5,1.7,1.1,2.4,1.8l-4.5,0.1
		c-2.5,0.1-4.6,1.8-5.3,4.1c-0.1,0.5-0.2,1.1-0.2,1.7c0.1,3.1,2.6,5.6,5.7,5.5l4.4-0.1c-1,1.1-2.2,1.9-3.6,2.4l-23.6,8
		c-0.5,0.2-1.1,0.3-1.7,0.4l4.1-3.4c2.4-2,2.7-5.5,0.8-7.9c-2-2.4-5.5-2.7-7.9-0.8l-6.2,5.1C64.9,33.7,67.3,29.6,71.1,28.3z
		 M26.1,97.6l-1.6-24.9c-0.3-4.6,3.3-8.7,7.8-8.9c0.5,0,0.9,0,1.4,0L29.9,67c-0.9,0.8-1.5,1.7-1.8,2.8c-0.5,1.7-0.2,3.6,1.1,5.1
		c2,2.4,5.5,2.7,7.9,0.8l4.2-3.5l1.6,24.3c0.1,1,0,1.9-0.3,2.9c-0.2,0.8-0.6,1.6-1,2.2l-2-5.5c-1.1-2.9-4.3-4.4-7.2-3.3
		c-1.8,0.6-3,2.1-3.5,3.7c-0.3,1.1-0.3,2.3,0.1,3.5l1.6,4.5C28.1,103.2,26.3,100.7,26.1,97.6z M65.2,121.4c-0.2-0.3-0.6-0.9-0.5-1.8
		c0.2-1.4,1.4-2.3,2.8-2.1c0.9,0.1,1.4,0.6,1.6,0.9c0.2,0.3,0.6,0.9,0.5,1.8c0,0.1,0,0.2-0.1,0.3c-0.3,1.2-1.5,1.9-2.7,1.7l0,0
		c0,0,0,0,0,0C66,122.2,65.5,121.7,65.2,121.4z M19.3,168.1c3.1-22.2,23.7-37.7,45.9-34.6c10.8,1.5,20.3,7.1,26.8,15.8
		c6.5,8.7,9.3,19.4,7.8,30.1c-3.5,24.9-20.3,36.6-35.1,35.4c-6-0.5-11.2,3.3-12.1,8.6c0.6-5.4-3.4-10.4-9.3-11.6
		C24.1,207.9,16.7,186.9,19.3,168.1z"/>
</g>
<g>
</g>
<g>
</g>
<g>
</g>
<g>
</g>
<g>
</g>
<g>
</g>
</svg>
