<?xml version="1.0" encoding="utf-8"?>
<!-- Generator: Adobe Illustrator 18.1.1, SVG Export Plug-In . SVG Version: 6.00 Build 0)  -->
<!DOCTYPE svg PUBLIC "-//W3C//DTD SVG 1.1//EN" "http://www.w3.org/Graphics/SVG/1.1/DTD/svg11.dtd">
<svg version="1.1" id="Layer_1" xmlns="http://www.w3.org/2000/svg" xmlns:xlink="http://www.w3.org/1999/xlink" x="0px" y="0px"
	 viewBox="0 0 256 155" style="enable-background:new 0 0 256 155;" xml:space="preserve">
<style type="text/css">
	.st0{fill:#BC9D6D;}
</style>
<g>
	<path class="st0" d="M191.4,90C191.4,90,191.4,90,191.4,90c11.8-3.6,24.1-8.4,35.8-14.8c18.9-11,28.5,0.4,21.5,17.7
		c-6,16.3-37.7,46.7-65.4,53.6c-10.6-7.5-31.4-12.6-55.4-12.7c-24,0.1-44.8,5.2-55.4,12.7C45,139.6,13.2,109.2,7.3,92.9
		c-7-17.2,2.7-28.6,21.5-17.7c11.8,6.4,24,11.2,35.8,14.8c25.3,7.6,48.6,9.5,60.7,9.5l6.7,0C144.1,99.4,166.8,97.4,191.4,90z"/>
	<g id="XMLID_1_">
		<path class="st0" d="M157.2,13.3c9.9,4.9,25.9,51.3,32.1,70.4c-23.8,6.9-45.6,8.8-57.4,8.9l-6.7,0c-11.8,0-34.1-1.8-58.7-8.9
			c6.2-19,22.3-65.4,32.2-70.4c11.3-5.7,21,3.7,28.8,4.6h-1.5c0.6,0.1,1.2,0.1,1.9,0c0.6,0.1,1.3,0,1.9,0h-1.5
			C136.2,17,145.9,7.6,157.2,13.3z M153.4,49.3c0-2.1-1.7-3.7-3.7-3.7c-1.9,0-3.4,1.4-3.7,3.2l-11.5-1.7l-5.1-10.3
			c1.4-0.6,2.3-1.9,2.3-3.5c0-2.1-1.7-3.7-3.7-3.7s-3.7,1.7-3.7,3.7c0,1.6,1,2.9,2.4,3.5l-5.1,10.2L110,48.8
			c-0.2-1.8-1.8-3.2-3.7-3.2c-2.1,0-3.7,1.7-3.7,3.7c0,2.1,1.7,3.7,3.7,3.7c1.3,0,2.4-0.6,3.1-1.6l8.2,8l-2.1,12
			c-0.5-0.2-1-0.3-1.5-0.3c-2.1,0-3.7,1.7-3.7,3.7c0,2.1,1.7,3.7,3.7,3.7c2.1,0,3.7-1.7,3.7-3.7c0-0.8-0.2-1.5-0.6-2.1L128,67
			l10.9,5.7c-0.4,0.6-0.7,1.3-0.7,2.1c0,2.1,1.7,3.7,3.7,3.7c2.1,0,3.7-1.7,3.7-3.7c0-2.1-1.7-3.7-3.7-3.7c-0.5,0-1,0.1-1.4,0.3
			l-2.1-12l8.2-7.9c0.7,1,1.8,1.6,3,1.6C151.7,53,153.4,51.4,153.4,49.3z"/>
	</g>
</g>
<g>
</g>
<g>
</g>
<g>
</g>
<g>
</g>
<g>
</g>
<g>
</g>
</svg>
