<?xml version="1.0" encoding="utf-8"?>
<!-- Generator: Adobe Illustrator 18.1.1, SVG Export Plug-In . SVG Version: 6.00 Build 0)  -->
<!DOCTYPE svg PUBLIC "-//W3C//DTD SVG 1.1//EN" "http://www.w3.org/Graphics/SVG/1.1/DTD/svg11.dtd">
<svg version="1.1" id="Layer_1" xmlns="http://www.w3.org/2000/svg" xmlns:xlink="http://www.w3.org/1999/xlink" x="0px" y="0px"
	 viewBox="0 0 256 256" style="enable-background:new 0 0 256 256;" xml:space="preserve">
<style type="text/css">
	.st0{fill:#87714F;}
</style>
<g>
	<g>
		<g id="Your_Icon_8_">
			<path class="st0" d="M232.4,176.6c-1.8,0-3.3,0.6-4.7,1.4l-29.4-49.5l29.4-49.5c1.4,0.8,2.9,1.4,4.7,1.4c5.1,0,9.3-4.2,9.3-9.4
				c0-5.2-4.2-9.3-9.3-9.3c-5.2,0-9.3,4.2-9.3,9.3c0,0,0,0.1,0,0.1L165.6,72l-28.2-50.2c2.8-1.6,4.8-4.5,4.8-8
				c0-5.2-4.2-9.3-9.3-9.3c-5.1,0-9.3,4.2-9.3,9.3c0,3.5,2,6.4,4.8,8L100.3,72l-57.5-0.7c0,0,0-0.1,0-0.1c0-5.2-4.2-9.3-9.3-9.3
				c-5.2,0-9.3,4.2-9.3,9.3c0,5.2,4.2,9.4,9.3,9.4c1.7,0,3.3-0.6,4.7-1.4l29.4,49.5l-29.4,49.5c-1.4-0.8-3-1.4-4.7-1.4
				c-5.2,0-9.3,4.2-9.3,9.3c0,5.2,4.2,9.4,9.3,9.4c5.1,0,9.3-4.2,9.3-9.4c0,0,0-0.1,0-0.1l57.5-0.7l28.2,50.2
				c-2.8,1.6-4.8,4.5-4.8,8c0,5.2,4.2,9.4,9.3,9.4c5.2,0,9.3-4.2,9.3-9.4c0-3.5-2-6.4-4.8-8l28.2-50.2l57.4,0.7c0,0,0,0.1,0,0.1
				c0,5.2,4.2,9.4,9.3,9.4c5.1,0,9.3-4.2,9.3-9.4C241.7,180.8,237.6,176.6,232.4,176.6z"/>
		</g>
	</g>
</g>
<g>
</g>
<g>
</g>
<g>
</g>
<g>
</g>
<g>
</g>
<g>
</g>
</svg>
